<?xml version="1.0" encoding="utf-8"?>
<!-- Generator: Adobe Illustrator 19.0.0, SVG Export Plug-In . SVG Version: 6.00 Build 0)  -->
<svg version="1.1" id="Шар_1" xmlns="http://www.w3.org/2000/svg" xmlns:xlink="http://www.w3.org/1999/xlink" x="0px" y="0px"
	 viewBox="0 0 83 52.1" style="enable-background:new 0 0 83 52.1;" xml:space="preserve">
<style type="text/css">
	.st0{fill:#0B2130;}
	.st1{fill:#0B1725;}
</style>
<g id="XMLID_15_">
	<path id="XMLID_18_" class="st0" d="M83,25.7v1H22.8v-1"/>
	<polygon id="XMLID_2_" class="st1" points="26.4,21.9 27.1,22.6 23.5,26.2 27.1,29.8 26.4,30.5 22.1,26.2 		"/>
	<path id="XMLID_16_" class="st1" d="M26.1,0.6c12.7,0,23.3,9.1,25.3,21.6l-1,0.2c-1.9-12-12.1-20.7-24.3-20.7
		c-13.6,0-24.6,11-24.6,24.6c0,13.6,11,24.6,24.6,24.6c12.2,0,22.4-8.7,24.3-20.7l1,0.2c-2,12.5-12.6,21.6-25.3,21.6
		C12,51.8,0.5,40.3,0.5,26.2S12,0.6,26.1,0.6z"/>
</g>
</svg>
